<mxfile host="65bd71144e">
    <diagram id="hgF1ohUo1K2Gr2cK3Jmr" name="Pool">
        <mxGraphModel dx="1624" dy="652" grid="1" gridSize="10" guides="1" tooltips="1" connect="1" arrows="1" fold="1" page="1" pageScale="1" pageWidth="827" pageHeight="1169" math="0" shadow="0">
            <root>
                <mxCell id="0"/>
                <mxCell id="1" parent="0"/>
                <mxCell id="2" value="100" style="rounded=0;whiteSpace=wrap;html=1;fillColor=#dae8fc;strokeColor=#6c8ebf;" parent="1" vertex="1">
                    <mxGeometry x="-100" y="180" width="100" height="100" as="geometry"/>
                </mxCell>
                <mxCell id="3" value="100" style="rounded=0;whiteSpace=wrap;html=1;fillColor=#d5e8d4;strokeColor=#82b366;" parent="1" vertex="1">
                    <mxGeometry y="180" width="100" height="100" as="geometry"/>
                </mxCell>
                <mxCell id="4" value="50" style="rounded=0;whiteSpace=wrap;html=1;fillColor=#dae8fc;strokeColor=#6c8ebf;" parent="1" vertex="1">
                    <mxGeometry x="120" y="180" width="50" height="100" as="geometry"/>
                </mxCell>
                <mxCell id="5" value="200" style="rounded=0;whiteSpace=wrap;html=1;fillColor=#d5e8d4;strokeColor=#82b366;" parent="1" vertex="1">
                    <mxGeometry x="170" y="180" width="200" height="100" as="geometry"/>
                </mxCell>
                <mxCell id="6" value="250" style="rounded=0;whiteSpace=wrap;html=1;fillColor=#dae8fc;strokeColor=#6c8ebf;" parent="1" vertex="1">
                    <mxGeometry x="-410" y="180" width="249.5" height="100" as="geometry"/>
                </mxCell>
                <mxCell id="7" value="40" style="rounded=0;whiteSpace=wrap;html=1;fillColor=#d5e8d4;strokeColor=#82b366;" parent="1" vertex="1">
                    <mxGeometry x="-160.5" y="180" width="40" height="100" as="geometry"/>
                </mxCell>
                <mxCell id="10" value="250x40=10000" style="text;html=1;align=center;verticalAlign=middle;resizable=0;points=[];autosize=1;strokeColor=none;fillColor=none;" parent="1" vertex="1">
                    <mxGeometry x="-334.25" y="280" width="100" height="30" as="geometry"/>
                </mxCell>
                <mxCell id="11" value="100x100=10000" style="text;html=1;align=center;verticalAlign=middle;resizable=0;points=[];autosize=1;strokeColor=none;fillColor=none;" parent="1" vertex="1">
                    <mxGeometry x="-61" y="280" width="110" height="30" as="geometry"/>
                </mxCell>
                <mxCell id="12" value="50x200=10000" style="text;html=1;align=center;verticalAlign=middle;resizable=0;points=[];autosize=1;strokeColor=none;fillColor=none;" parent="1" vertex="1">
                    <mxGeometry x="188" y="280" width="100" height="30" as="geometry"/>
                </mxCell>
            </root>
        </mxGraphModel>
    </diagram>
    <diagram id="PIW7fb5hGPB3QAyb1KkP" name="Flash">
        <mxGraphModel dx="797" dy="652" grid="1" gridSize="10" guides="1" tooltips="1" connect="1" arrows="1" fold="1" page="1" pageScale="1" pageWidth="827" pageHeight="1169" math="0" shadow="0">
            <root>
                <mxCell id="0"/>
                <mxCell id="1" parent="0"/>
                <mxCell id="61vC76YR_hrlLvXWiFcv-1" value="" style="rounded=1;whiteSpace=wrap;html=1;fillColor=none;" parent="1" vertex="1">
                    <mxGeometry x="190" y="320" width="430" height="80" as="geometry"/>
                </mxCell>
                <mxCell id="61vC76YR_hrlLvXWiFcv-6" style="edgeStyle=none;html=1;exitX=1;exitY=0.5;exitDx=0;exitDy=0;entryX=0;entryY=0.5;entryDx=0;entryDy=0;" parent="1" source="61vC76YR_hrlLvXWiFcv-3" target="61vC76YR_hrlLvXWiFcv-5" edge="1">
                    <mxGeometry relative="1" as="geometry"/>
                </mxCell>
                <mxCell id="61vC76YR_hrlLvXWiFcv-3" value="从池子里&lt;br&gt;借出代币" style="rounded=1;whiteSpace=wrap;html=1;" parent="1" vertex="1">
                    <mxGeometry x="200" y="330" width="80" height="60" as="geometry"/>
                </mxCell>
                <mxCell id="61vC76YR_hrlLvXWiFcv-10" style="edgeStyle=none;html=1;exitX=1;exitY=0.5;exitDx=0;exitDy=0;" parent="1" source="61vC76YR_hrlLvXWiFcv-4" target="61vC76YR_hrlLvXWiFcv-9" edge="1">
                    <mxGeometry relative="1" as="geometry"/>
                </mxCell>
                <mxCell id="61vC76YR_hrlLvXWiFcv-4" value="把代币&lt;br&gt;加手续费&lt;br&gt;还给池子" style="rounded=1;whiteSpace=wrap;html=1;" parent="1" vertex="1">
                    <mxGeometry x="400" y="330" width="80" height="60" as="geometry"/>
                </mxCell>
                <mxCell id="61vC76YR_hrlLvXWiFcv-7" style="edgeStyle=none;html=1;exitX=1;exitY=0.5;exitDx=0;exitDy=0;entryX=0;entryY=0.5;entryDx=0;entryDy=0;" parent="1" source="61vC76YR_hrlLvXWiFcv-5" target="61vC76YR_hrlLvXWiFcv-4" edge="1">
                    <mxGeometry relative="1" as="geometry"/>
                </mxCell>
                <mxCell id="61vC76YR_hrlLvXWiFcv-5" value="使用&lt;br&gt;代币" style="rounded=1;whiteSpace=wrap;html=1;" parent="1" vertex="1">
                    <mxGeometry x="300" y="330" width="80" height="60" as="geometry"/>
                </mxCell>
                <mxCell id="61vC76YR_hrlLvXWiFcv-8" value="原&lt;br&gt;子&lt;br&gt;交&lt;br&gt;易" style="text;html=1;align=center;verticalAlign=middle;resizable=0;points=[];autosize=1;strokeColor=none;fillColor=none;" parent="1" vertex="1">
                    <mxGeometry x="590" y="325" width="40" height="70" as="geometry"/>
                </mxCell>
                <mxCell id="61vC76YR_hrlLvXWiFcv-9" value="池子检查&lt;br&gt;k值" style="rounded=1;whiteSpace=wrap;html=1;" parent="1" vertex="1">
                    <mxGeometry x="500" y="330" width="80" height="60" as="geometry"/>
                </mxCell>
            </root>
        </mxGraphModel>
    </diagram>
    <diagram id="UNQaxMZ3N281Ehvnia4T" name="Sandwith">
        <mxGraphModel dx="797" dy="652" grid="1" gridSize="10" guides="1" tooltips="1" connect="1" arrows="1" fold="1" page="1" pageScale="1" pageWidth="827" pageHeight="1169" math="0" shadow="0">
            <root>
                <mxCell id="0"/>
                <mxCell id="1" parent="0"/>
                <mxCell id="Sz1OUSpTQ4PPW9Q-EU03-1" value="交易#1" style="rounded=1;whiteSpace=wrap;html=1;" parent="1" vertex="1">
                    <mxGeometry x="160" y="240" width="120" height="40" as="geometry"/>
                </mxCell>
                <mxCell id="Sz1OUSpTQ4PPW9Q-EU03-2" value="交易#2" style="rounded=1;whiteSpace=wrap;html=1;" parent="1" vertex="1">
                    <mxGeometry x="160" y="200" width="120" height="40" as="geometry"/>
                </mxCell>
                <mxCell id="Sz1OUSpTQ4PPW9Q-EU03-3" value="交易#3" style="rounded=1;whiteSpace=wrap;html=1;" parent="1" vertex="1">
                    <mxGeometry x="160" y="160" width="120" height="40" as="geometry"/>
                </mxCell>
                <mxCell id="Sz1OUSpTQ4PPW9Q-EU03-4" value="" style="endArrow=classic;html=1;" parent="1" edge="1">
                    <mxGeometry width="50" height="50" relative="1" as="geometry">
                        <mxPoint x="140" y="280" as="sourcePoint"/>
                        <mxPoint x="140" y="160" as="targetPoint"/>
                    </mxGeometry>
                </mxCell>
                <mxCell id="Sz1OUSpTQ4PPW9Q-EU03-5" value="执&lt;br&gt;行&lt;br&gt;顺&lt;br&gt;序" style="text;html=1;align=center;verticalAlign=middle;resizable=0;points=[];autosize=1;strokeColor=none;fillColor=none;" parent="1" vertex="1">
                    <mxGeometry x="110" y="185" width="40" height="70" as="geometry"/>
                </mxCell>
                <mxCell id="Sz1OUSpTQ4PPW9Q-EU03-8" value="https://t7.baidu.com/it/u=3677463293,264330042&amp;amp;fm=193" style="text;html=1;align=center;verticalAlign=middle;resizable=0;points=[];autosize=1;strokeColor=none;fillColor=none;" parent="1" vertex="1">
                    <mxGeometry x="150" y="428" width="330" height="30" as="geometry"/>
                </mxCell>
                <mxCell id="Sz1OUSpTQ4PPW9Q-EU03-10" value="" style="endArrow=none;html=1;dashed=1;" parent="1" edge="1">
                    <mxGeometry width="50" height="50" relative="1" as="geometry">
                        <mxPoint x="320" y="270" as="sourcePoint"/>
                        <mxPoint x="320" y="170" as="targetPoint"/>
                    </mxGeometry>
                </mxCell>
                <mxCell id="Sz1OUSpTQ4PPW9Q-EU03-12" value="https://img.ixintu.com/download/jpg/20200713/fba1694dd7c535b5676a93898e3540f7_512_512.jpg!con" style="text;html=1;align=center;verticalAlign=middle;resizable=0;points=[];autosize=1;strokeColor=none;fillColor=none;" parent="1" vertex="1">
                    <mxGeometry x="145" y="398" width="570" height="30" as="geometry"/>
                </mxCell>
                <mxCell id="hImzw114MajdmPCpbo6F-1" value="" style="rounded=1;whiteSpace=wrap;html=1;" vertex="1" parent="1">
                    <mxGeometry x="90" y="520" width="280" height="120" as="geometry"/>
                </mxCell>
                <mxCell id="hImzw114MajdmPCpbo6F-2" value="交易#N-1" style="rounded=0;whiteSpace=wrap;html=1;" vertex="1" parent="1">
                    <mxGeometry x="240" y="540" width="40" height="80" as="geometry"/>
                </mxCell>
                <mxCell id="hImzw114MajdmPCpbo6F-3" value="交易#N" style="rounded=0;whiteSpace=wrap;html=1;" vertex="1" parent="1">
                    <mxGeometry x="160" y="540" width="40" height="80" as="geometry"/>
                </mxCell>
                <mxCell id="hImzw114MajdmPCpbo6F-4" value="交易#N+1" style="rounded=0;whiteSpace=wrap;html=1;" vertex="1" parent="1">
                    <mxGeometry x="200" y="540" width="40" height="80" as="geometry"/>
                </mxCell>
                <mxCell id="hImzw114MajdmPCpbo6F-5" value="区&lt;br&gt;块" style="text;html=1;align=center;verticalAlign=middle;resizable=0;points=[];autosize=1;strokeColor=none;fillColor=none;" vertex="1" parent="1">
                    <mxGeometry x="330" y="560" width="40" height="40" as="geometry"/>
                </mxCell>
                <mxCell id="hImzw114MajdmPCpbo6F-7" value="" style="shape=document;whiteSpace=wrap;html=1;boundedLbl=1;rotation=90;" vertex="1" parent="1">
                    <mxGeometry x="100" y="560" width="80" height="40" as="geometry"/>
                </mxCell>
                <mxCell id="hImzw114MajdmPCpbo6F-6" value="其他&lt;br&gt;交易" style="text;html=1;align=center;verticalAlign=middle;resizable=0;points=[];autosize=1;strokeColor=none;fillColor=none;" vertex="1" parent="1">
                    <mxGeometry x="120" y="560" width="50" height="40" as="geometry"/>
                </mxCell>
                <mxCell id="hImzw114MajdmPCpbo6F-8" value="" style="shape=document;whiteSpace=wrap;html=1;boundedLbl=1;rotation=90;flipV=1;flipH=1;" vertex="1" parent="1">
                    <mxGeometry x="260" y="560" width="80" height="40" as="geometry"/>
                </mxCell>
                <mxCell id="hImzw114MajdmPCpbo6F-9" value="其他&lt;br&gt;交易" style="text;html=1;align=center;verticalAlign=middle;resizable=0;points=[];autosize=1;strokeColor=none;fillColor=none;" vertex="1" parent="1">
                    <mxGeometry x="270" y="560" width="50" height="40" as="geometry"/>
                </mxCell>
            </root>
        </mxGraphModel>
    </diagram>
    <diagram id="rYD08mqhLCZ9oQatBXUe" name="State">
        <mxGraphModel dx="797" dy="652" grid="1" gridSize="10" guides="1" tooltips="1" connect="1" arrows="1" fold="1" page="1" pageScale="1" pageWidth="827" pageHeight="1169" math="0" shadow="0">
            <root>
                <mxCell id="0"/>
                <mxCell id="1" parent="0"/>
                <mxCell id="rPM4J3EaBUzl6xs7XdjZ-1" value="" style="rounded=1;whiteSpace=wrap;html=1;" parent="1" vertex="1">
                    <mxGeometry x="200" y="160" width="480" height="120" as="geometry"/>
                </mxCell>
                <mxCell id="rPM4J3EaBUzl6xs7XdjZ-3" value="" style="rounded=1;whiteSpace=wrap;html=1;" parent="1" vertex="1">
                    <mxGeometry x="250" y="172.5" width="70" height="95" as="geometry"/>
                </mxCell>
                <mxCell id="rPM4J3EaBUzl6xs7XdjZ-4" value="" style="rounded=1;whiteSpace=wrap;html=1;" parent="1" vertex="1">
                    <mxGeometry x="330" y="172.5" width="330" height="95" as="geometry"/>
                </mxCell>
                <mxCell id="rPM4J3EaBUzl6xs7XdjZ-5" value="持&lt;br&gt;久&lt;br&gt;存&lt;br&gt;储" style="text;html=1;align=center;verticalAlign=middle;whiteSpace=wrap;rounded=0;" parent="1" vertex="1">
                    <mxGeometry x="320" y="205" width="60" height="30" as="geometry"/>
                </mxCell>
                <mxCell id="rPM4J3EaBUzl6xs7XdjZ-8" value="合&lt;br&gt;约&lt;br&gt;代&lt;br&gt;码" style="text;html=1;align=center;verticalAlign=middle;whiteSpace=wrap;rounded=0;" parent="1" vertex="1">
                    <mxGeometry x="255" y="205" width="60" height="30" as="geometry"/>
                </mxCell>
                <mxCell id="rPM4J3EaBUzl6xs7XdjZ-10" value="合&lt;br&gt;约&lt;br&gt;账&lt;br&gt;户" style="text;html=1;align=center;verticalAlign=middle;whiteSpace=wrap;rounded=0;" parent="1" vertex="1">
                    <mxGeometry x="190" y="205" width="60" height="30" as="geometry"/>
                </mxCell>
                <mxCell id="rPM4J3EaBUzl6xs7XdjZ-11" value="x" style="rounded=0;whiteSpace=wrap;html=1;dashed=1;" parent="1" vertex="1">
                    <mxGeometry x="370" y="180" width="20" height="80" as="geometry"/>
                </mxCell>
                <mxCell id="rPM4J3EaBUzl6xs7XdjZ-12" value="y" style="rounded=0;whiteSpace=wrap;html=1;dashed=1;" parent="1" vertex="1">
                    <mxGeometry x="390" y="180" width="20" height="80" as="geometry"/>
                </mxCell>
                <mxCell id="rPM4J3EaBUzl6xs7XdjZ-13" value="k" style="rounded=0;whiteSpace=wrap;html=1;" parent="1" vertex="1">
                    <mxGeometry x="410" y="180" width="20" height="80" as="geometry"/>
                </mxCell>
                <mxCell id="rPM4J3EaBUzl6xs7XdjZ-14" value="手续费比例" style="rounded=0;whiteSpace=wrap;html=1;" parent="1" vertex="1">
                    <mxGeometry x="430" y="180" width="20" height="80" as="geometry"/>
                </mxCell>
                <mxCell id="cnzWOtuHOJlfIkb7JOYn-1" value="" style="shape=table;startSize=0;container=1;collapsible=0;childLayout=tableLayout;" vertex="1" parent="1">
                    <mxGeometry x="450" y="180" width="190" height="80" as="geometry"/>
                </mxCell>
                <mxCell id="cnzWOtuHOJlfIkb7JOYn-2" value="" style="shape=tableRow;horizontal=0;startSize=0;swimlaneHead=0;swimlaneBody=0;strokeColor=inherit;top=0;left=0;bottom=0;right=0;collapsible=0;dropTarget=0;fillColor=none;points=[[0,0.5],[1,0.5]];portConstraint=eastwest;" vertex="1" parent="cnzWOtuHOJlfIkb7JOYn-1">
                    <mxGeometry width="190" height="20" as="geometry"/>
                </mxCell>
                <mxCell id="cnzWOtuHOJlfIkb7JOYn-3" value="地址" style="shape=partialRectangle;html=1;whiteSpace=wrap;connectable=0;strokeColor=inherit;overflow=hidden;fillColor=none;top=0;left=0;bottom=0;right=0;pointerEvents=1;" vertex="1" parent="cnzWOtuHOJlfIkb7JOYn-2">
                    <mxGeometry width="95" height="20" as="geometry">
                        <mxRectangle width="95" height="20" as="alternateBounds"/>
                    </mxGeometry>
                </mxCell>
                <mxCell id="cnzWOtuHOJlfIkb7JOYn-4" value="份额" style="shape=partialRectangle;html=1;whiteSpace=wrap;connectable=0;strokeColor=inherit;overflow=hidden;fillColor=none;top=0;left=0;bottom=0;right=0;pointerEvents=1;" vertex="1" parent="cnzWOtuHOJlfIkb7JOYn-2">
                    <mxGeometry x="95" width="95" height="20" as="geometry">
                        <mxRectangle width="95" height="20" as="alternateBounds"/>
                    </mxGeometry>
                </mxCell>
                <mxCell id="cnzWOtuHOJlfIkb7JOYn-5" value="" style="shape=tableRow;horizontal=0;startSize=0;swimlaneHead=0;swimlaneBody=0;strokeColor=inherit;top=0;left=0;bottom=0;right=0;collapsible=0;dropTarget=0;fillColor=none;points=[[0,0.5],[1,0.5]];portConstraint=eastwest;" vertex="1" parent="cnzWOtuHOJlfIkb7JOYn-1">
                    <mxGeometry y="20" width="190" height="20" as="geometry"/>
                </mxCell>
                <mxCell id="cnzWOtuHOJlfIkb7JOYn-6" value="0x01###..." style="shape=partialRectangle;html=1;whiteSpace=wrap;connectable=0;strokeColor=inherit;overflow=hidden;fillColor=none;top=0;left=0;bottom=0;right=0;pointerEvents=1;" vertex="1" parent="cnzWOtuHOJlfIkb7JOYn-5">
                    <mxGeometry width="95" height="20" as="geometry">
                        <mxRectangle width="95" height="20" as="alternateBounds"/>
                    </mxGeometry>
                </mxCell>
                <mxCell id="cnzWOtuHOJlfIkb7JOYn-7" value="20%" style="shape=partialRectangle;html=1;whiteSpace=wrap;connectable=0;strokeColor=inherit;overflow=hidden;fillColor=none;top=0;left=0;bottom=0;right=0;pointerEvents=1;" vertex="1" parent="cnzWOtuHOJlfIkb7JOYn-5">
                    <mxGeometry x="95" width="95" height="20" as="geometry">
                        <mxRectangle width="95" height="20" as="alternateBounds"/>
                    </mxGeometry>
                </mxCell>
                <mxCell id="cnzWOtuHOJlfIkb7JOYn-8" value="" style="shape=tableRow;horizontal=0;startSize=0;swimlaneHead=0;swimlaneBody=0;strokeColor=inherit;top=0;left=0;bottom=0;right=0;collapsible=0;dropTarget=0;fillColor=none;points=[[0,0.5],[1,0.5]];portConstraint=eastwest;" vertex="1" parent="cnzWOtuHOJlfIkb7JOYn-1">
                    <mxGeometry y="40" width="190" height="20" as="geometry"/>
                </mxCell>
                <mxCell id="cnzWOtuHOJlfIkb7JOYn-9" value="0x02###..." style="shape=partialRectangle;html=1;whiteSpace=wrap;connectable=0;strokeColor=inherit;overflow=hidden;fillColor=none;top=0;left=0;bottom=0;right=0;pointerEvents=1;" vertex="1" parent="cnzWOtuHOJlfIkb7JOYn-8">
                    <mxGeometry width="95" height="20" as="geometry">
                        <mxRectangle width="95" height="20" as="alternateBounds"/>
                    </mxGeometry>
                </mxCell>
                <mxCell id="cnzWOtuHOJlfIkb7JOYn-10" value="30%" style="shape=partialRectangle;html=1;whiteSpace=wrap;connectable=0;strokeColor=inherit;overflow=hidden;fillColor=none;top=0;left=0;bottom=0;right=0;pointerEvents=1;" vertex="1" parent="cnzWOtuHOJlfIkb7JOYn-8">
                    <mxGeometry x="95" width="95" height="20" as="geometry">
                        <mxRectangle width="95" height="20" as="alternateBounds"/>
                    </mxGeometry>
                </mxCell>
                <mxCell id="cnzWOtuHOJlfIkb7JOYn-11" value="" style="shape=tableRow;horizontal=0;startSize=0;swimlaneHead=0;swimlaneBody=0;strokeColor=inherit;top=0;left=0;bottom=0;right=0;collapsible=0;dropTarget=0;fillColor=none;points=[[0,0.5],[1,0.5]];portConstraint=eastwest;" vertex="1" parent="cnzWOtuHOJlfIkb7JOYn-1">
                    <mxGeometry y="60" width="190" height="20" as="geometry"/>
                </mxCell>
                <mxCell id="cnzWOtuHOJlfIkb7JOYn-12" value="0x03###..." style="shape=partialRectangle;html=1;whiteSpace=wrap;connectable=0;strokeColor=inherit;overflow=hidden;fillColor=none;top=0;left=0;bottom=0;right=0;pointerEvents=1;" vertex="1" parent="cnzWOtuHOJlfIkb7JOYn-11">
                    <mxGeometry width="95" height="20" as="geometry">
                        <mxRectangle width="95" height="20" as="alternateBounds"/>
                    </mxGeometry>
                </mxCell>
                <mxCell id="cnzWOtuHOJlfIkb7JOYn-13" value="50%" style="shape=partialRectangle;html=1;whiteSpace=wrap;connectable=0;strokeColor=inherit;overflow=hidden;fillColor=none;top=0;left=0;bottom=0;right=0;pointerEvents=1;" vertex="1" parent="cnzWOtuHOJlfIkb7JOYn-11">
                    <mxGeometry x="95" width="95" height="20" as="geometry">
                        <mxRectangle width="95" height="20" as="alternateBounds"/>
                    </mxGeometry>
                </mxCell>
            </root>
        </mxGraphModel>
    </diagram>
</mxfile>